# Blender 4.1.0
# www.blender.org
o Cone
v -0.250000 -0.433013 -2.000275
v -0.062500 -0.108253 0.404003
v -0.125000 -0.000000 0.404003
v -0.226332 0.431185 -1.977486
v -0.042733 0.109929 0.383358
v -0.093750 -0.054127 0.404003
v -0.372370 -0.191465 -2.000275
v -0.062500 0.108253 0.404003
v 0.000000 0.054127 0.404003
v -0.042733 0.099929 0.383358
v -0.226332 0.421185 -1.977486
v -0.093750 0.054127 0.404003
v -0.372370 0.191465 -2.000275
v 0.000000 -0.433013 -2.000275
v 0.000000 -0.108253 0.404003
v 0.000000 0.108253 0.404003
v 0.000000 -0.000000 0.404003
v 0.000000 0.109929 0.383358
v 0.000000 0.421185 -1.977486
v 0.000000 0.099929 0.383358
v 0.000000 -0.054127 0.404003
v -0.553376 -0.164742 -2.877478
v -1.004452 -0.162984 -2.877478
v -1.057056 0.001086 -2.877478
v -0.865456 -0.264800 -2.877478
v -0.863390 0.265472 -2.877478
v -0.262500 0.151554 -2.877478
v -0.552098 0.162984 -2.877478
v -0.250000 -0.433013 -2.877478
v -0.205025 0.450163 -2.851907
v -1.003175 0.164742 -2.877478
v -0.125000 -0.216506 -2.877478
v -0.499495 -0.001087 -2.877478
v -0.125000 0.216506 -2.877478
v -0.693161 -0.265472 -2.877478
v -0.691094 0.264800 -2.877478
v 0.000000 -0.433013 -2.877478
v 0.000000 0.433013 -2.877478
v 0.000000 -0.216506 -2.877478
v 0.000000 0.216506 -2.877478
v -0.262500 -0.151554 -2.877478
v -1.041742 -0.175262 -2.438740
v -1.041742 0.175261 -2.438740
v -1.097336 -0.000000 -2.438740
v -0.876920 -0.313957 -2.438740
v -0.892964 0.313956 -2.438740
v -0.217432 0.433013 -2.438740
v -0.250000 -0.433013 -2.438740
v -0.670601 -0.313956 -2.438740
v -0.373685 -0.203986 -2.438740
v -0.654556 0.313956 -2.438740
v -0.373685 0.203986 -2.438740
v 0.000000 -0.433013 -2.438740
v -1.012972 -0.170838 -2.000275
v -1.068989 -0.000000 -2.000275
v -0.867362 -0.275639 -2.000275
v -0.867362 0.275639 -2.000275
v -1.012972 0.170838 -2.000275
v -0.688258 -0.275579 -2.000275
v -0.688298 0.275439 -2.000275
v 0.000000 0.433013 -2.000275
v 0.000000 0.431185 -1.977486
v -1.042694 0.191465 -2.877478
v -0.879824 0.309797 -2.877478
v -1.042694 -0.191465 -2.877478
v -1.104905 -0.000000 -2.877478
v -0.879824 -0.309797 -2.877478
v -0.678506 -0.309797 -2.877478
v -0.372370 -0.191465 -2.877478
v -0.678506 0.309797 -2.877478
v -0.372370 0.191465 -2.877478
v -0.310159 -0.000000 -2.877478
v -0.552806 -0.163842 -2.827478
v -0.766797 -0.000000 -2.827478
v -0.552806 0.163841 -2.827478
v -1.057058 -0.000000 -2.827478
v -0.499571 -0.000000 -2.827478
v -0.692178 0.265101 -2.827478
v -0.864451 0.265101 -2.827478
v -1.003823 0.163841 -2.827478
v -0.692178 -0.265101 -2.827478
v -0.864451 -0.265101 -2.827478
v -1.003823 -0.163842 -2.827478
v -0.262500 -0.151554 -2.827478
v 0.000000 -0.108253 -2.827478
v -0.125000 -0.216506 -2.827478
v -0.262500 0.151554 -2.827478
v 0.000000 0.108253 -2.827478
v 0.000000 -0.216506 -2.827478
v -0.125000 0.216506 -2.827478
v -0.310159 -0.000000 -2.827478
v 0.000000 0.216506 -2.827478
v 0.000000 0.000000 -2.827478
v -0.499012 0.193474 -2.877478
v -0.499012 -0.207035 -2.438740
v -0.533170 0.108025 -2.000275
v -0.533170 -0.178048 -2.000275
v -0.499012 -0.144397 -2.000275
v -0.499012 -0.001722 -2.000275
v -0.499012 0.203591 -2.438740
v -0.499012 -0.001722 -2.877478
v -0.499012 -0.196918 -2.877478
v -0.533170 0.174907 -2.000275
v -0.109375 0.027063 0.404003
v -0.250000 0.433013 -2.438740
v -0.250000 0.433013 -2.877478
v 0.000000 0.433013 -2.851907
v 0.000000 0.433013 -2.025835
v -0.250000 0.433013 -2.000275
v 0.000000 0.654348 -2.438740
v 0.000000 0.654348 -2.851907
v 0.000000 0.578373 -2.183024
v -0.121196 0.433013 -2.025835
v -0.204504 0.433013 -2.134429
v -0.199340 0.579071 -2.438740
v -0.190115 0.570576 -2.851907
v -0.114695 0.637197 -2.851907
v -0.201969 0.514991 -2.222920
v -0.121195 0.578373 -2.183024
v -1.042399 -0.186442 -2.136194
v -1.042399 0.186442 -2.136194
v -1.102559 -0.000000 -2.136194
v -0.883897 0.311086 -2.136194
v -0.671082 -0.311086 -2.136194
v -0.883897 -0.311086 -2.136194
v -0.671082 0.311086 -2.136194
v -0.372777 0.195346 -2.136194
v -0.250000 0.433013 -2.136194
v -0.372777 -0.195346 -2.136194
v -0.499012 0.196611 -2.136194
v -0.499012 -0.200054 -2.136194
v 0.000000 -0.433013 -2.136194
v -0.250000 -0.433013 -2.136194
v -0.114188 0.654348 -2.438740
v -0.224429 0.433013 -2.851907
v -0.121185 0.654348 -2.851907
v 0.000000 0.450163 -2.851907
v 0.000000 0.637197 -2.851907
v -0.206337 0.579130 -2.851907
v 0.000000 0.637197 -2.845287
v 0.000000 0.450163 -2.845287
v -0.205025 0.450163 -2.845287
v -0.114695 0.637197 -2.845287
v -0.190115 0.570576 -2.845287
v -1.042694 0.191465 -2.000275
v -0.879824 0.309797 -2.000275
v -1.042694 -0.191465 -2.000275
v -1.104905 -0.000000 -2.000275
v -0.879824 -0.309797 -2.000275
v -0.678506 -0.309797 -2.000275
v -0.678506 0.309797 -2.000275
v -0.499012 0.193474 -2.000275
v -0.499012 -0.196918 -2.000275
v -0.499012 0.123819 -2.000275
v -0.533170 -0.001502 -2.000275
v -0.533170 -0.125978 -2.000275
v -0.533170 -0.125978 -2.050275
v -0.766797 -0.000000 -2.050275
v -0.533170 -0.001502 -2.050275
v -1.068989 -0.000000 -2.050275
v -0.688298 0.275439 -2.050275
v -0.867362 0.275639 -2.050275
v -1.012972 0.170838 -2.050275
v -0.688258 -0.275579 -2.050275
v -0.867362 -0.275639 -2.050275
v -1.012972 -0.170838 -2.050275
v -0.533170 0.108025 -2.050275
v -0.533170 0.174907 -2.050275
v -0.533170 -0.178048 -2.050275
v 0.250000 -0.433013 -2.000275
v 0.062500 -0.108253 0.404003
v 0.125000 -0.000000 0.404003
v 0.226332 0.431185 -1.977486
v 0.042733 0.109929 0.383358
v 0.093750 -0.054127 0.404003
v 0.372370 -0.191465 -2.000275
v 0.062500 0.108253 0.404003
v 0.042733 0.099929 0.383358
v 0.226332 0.421185 -1.977486
v 0.093750 0.054127 0.404003
v 0.372370 0.191465 -2.000275
v 0.553376 -0.164742 -2.877478
v 1.004452 -0.162984 -2.877478
v 1.057056 0.001086 -2.877478
v 0.865456 -0.264800 -2.877478
v 0.863390 0.265472 -2.877478
v 0.262500 0.151554 -2.877478
v 0.552098 0.162984 -2.877478
v 0.250000 -0.433013 -2.877478
v 0.205025 0.450163 -2.851907
v 1.003175 0.164742 -2.877478
v 0.125000 -0.216506 -2.877478
v 0.499495 -0.001087 -2.877478
v 0.125000 0.216506 -2.877478
v 0.693161 -0.265472 -2.877478
v 0.691094 0.264800 -2.877478
v 0.262500 -0.151554 -2.877478
v 1.041742 -0.175262 -2.438740
v 1.041742 0.175261 -2.438740
v 1.097336 -0.000000 -2.438740
v 0.876920 -0.313957 -2.438740
v 0.892964 0.313956 -2.438740
v 0.217432 0.433013 -2.438740
v 0.250000 -0.433013 -2.438740
v 0.670601 -0.313956 -2.438740
v 0.373685 -0.203986 -2.438740
v 0.654556 0.313956 -2.438740
v 0.373685 0.203986 -2.438740
v 1.012972 -0.170838 -2.000275
v 1.068989 -0.000000 -2.000275
v 0.867362 -0.275639 -2.000275
v 0.867362 0.275639 -2.000275
v 1.012972 0.170838 -2.000275
v 0.688258 -0.275579 -2.000275
v 0.688298 0.275439 -2.000275
v 1.042694 0.191465 -2.877478
v 0.879824 0.309797 -2.877478
v 1.042694 -0.191465 -2.877478
v 1.104905 -0.000000 -2.877478
v 0.879824 -0.309797 -2.877478
v 0.678506 -0.309797 -2.877478
v 0.372370 -0.191465 -2.877478
v 0.678506 0.309797 -2.877478
v 0.372370 0.191465 -2.877478
v 0.310159 -0.000000 -2.877478
v 0.552806 -0.163842 -2.827478
v 0.766797 -0.000000 -2.827478
v 0.552806 0.163841 -2.827478
v 1.057058 -0.000000 -2.827478
v 0.499571 -0.000000 -2.827478
v 0.692178 0.265101 -2.827478
v 0.864451 0.265101 -2.827478
v 1.003823 0.163841 -2.827478
v 0.692178 -0.265101 -2.827478
v 0.864451 -0.265101 -2.827478
v 1.003823 -0.163842 -2.827478
v 0.262500 -0.151554 -2.827478
v 0.125000 -0.216506 -2.827478
v 0.262500 0.151554 -2.827478
v 0.125000 0.216506 -2.827478
v 0.310159 -0.000000 -2.827478
v 0.499012 0.193474 -2.877478
v 0.499012 -0.207035 -2.438740
v 0.533170 0.108025 -2.000275
v 0.533170 -0.178048 -2.000275
v 0.499012 -0.144397 -2.000275
v 0.499012 -0.001722 -2.000275
v 0.499012 0.203591 -2.438740
v 0.499012 -0.001722 -2.877478
v 0.499012 -0.196918 -2.877478
v 0.533170 0.174907 -2.000275
v 0.109375 0.027063 0.404003
v 0.250000 0.433013 -2.438740
v 0.250000 0.433013 -2.877478
v 0.250000 0.433013 -2.000275
v 0.121196 0.433013 -2.025835
v 0.204504 0.433013 -2.134429
v 0.199340 0.579071 -2.438740
v 0.190115 0.570576 -2.851907
v 0.114695 0.637197 -2.851907
v 0.201969 0.514991 -2.222920
v 0.121195 0.578373 -2.183024
v 1.042399 -0.186442 -2.136194
v 1.042399 0.186442 -2.136194
v 1.102559 -0.000000 -2.136194
v 0.883897 0.311086 -2.136194
v 0.671082 -0.311086 -2.136194
v 0.883897 -0.311086 -2.136194
v 0.671082 0.311086 -2.136194
v 0.372777 0.195346 -2.136194
v 0.250000 0.433013 -2.136194
v 0.372777 -0.195346 -2.136194
v 0.499012 0.196611 -2.136194
v 0.499012 -0.200054 -2.136194
v 0.250000 -0.433013 -2.136194
v 0.114188 0.654348 -2.438740
v 0.224429 0.433013 -2.851907
v 0.121185 0.654348 -2.851907
v 0.206337 0.579130 -2.851907
v 0.205025 0.450163 -2.845287
v 0.114695 0.637197 -2.845287
v 0.190115 0.570576 -2.845287
v 1.042694 0.191465 -2.000275
v 0.879824 0.309797 -2.000275
v 1.042694 -0.191465 -2.000275
v 1.104905 -0.000000 -2.000275
v 0.879824 -0.309797 -2.000275
v 0.678506 -0.309797 -2.000275
v 0.678506 0.309797 -2.000275
v 0.499012 0.193474 -2.000275
v 0.499012 -0.196918 -2.000275
v 0.499012 0.123819 -2.000275
v 0.533170 -0.001502 -2.000275
v 0.533170 -0.125978 -2.000275
v 0.533170 -0.125978 -2.050275
v 0.766797 -0.000000 -2.050275
v 0.533170 -0.001502 -2.050275
v 1.068989 -0.000000 -2.050275
v 0.688298 0.275439 -2.050275
v 0.867362 0.275639 -2.050275
v 1.012972 0.170838 -2.050275
v 0.688258 -0.275579 -2.050275
v 0.867362 -0.275639 -2.050275
v 1.012972 -0.170838 -2.050275
v 0.533170 0.108025 -2.050275
v 0.533170 0.174907 -2.050275
v 0.533170 -0.178048 -2.050275
vn -0.0000 -0.9910 0.1339
vn -0.8248 -0.5505 0.1287
vn -0.8845 0.4481 0.1295
vn -0.0000 -0.0000 1.0000
vn 0.0525 0.9900 0.1306
vn -0.0000 0.9967 0.0809
vn 0.9970 -0.0000 -0.0775
vn -0.0000 -0.0000 -1.0000
vn -0.0000 0.9909 0.1348
vn -0.0011 -1.0000 -0.0000
vn -0.8845 -0.4481 0.1295
vn -0.9510 -0.3090 0.0135
vn -0.6816 0.7312 0.0285
vn -0.0000 -1.0000 -0.0000
vn -0.8799 0.4752 -0.0000
vn -0.0000 1.0000 -0.0000
vn -0.9531 0.3023 0.0164
vn -0.0000 -1.0000 -0.0074
vn 0.4271 -0.9042 -0.0000
vn -0.0000 1.0000 -0.0095
vn -0.9510 -0.3090 -0.0082
vn 0.5435 0.8386 -0.0376
vn -0.5878 -0.8090 -0.0038
vn 0.9539 0.3000 -0.0000
vn 0.5878 0.8090 -0.0070
vn -0.0000 1.0000 -0.0074
vn 0.9510 0.3090 -0.0067
vn -0.5878 0.8090 -0.0079
vn -0.5878 -0.8090 -0.0079
vn 0.5878 -0.8090 -0.0070
vn 0.9510 -0.3090 -0.0067
vn -0.8919 -0.4519 -0.0156
vn -0.0000 -1.0000 -0.0095
vn 0.5288 -0.8486 -0.0176
vn -0.9516 -0.3070 -0.0164
vn -0.6179 0.7857 -0.0304
vn -0.8885 0.4590 -0.0000
vn -0.9516 0.3070 -0.0164
vn -0.0000 1.0000 0.0095
vn 0.5538 0.8324 0.0192
vn -0.6179 -0.7857 -0.0304
vn -1.0000 -0.0000 -0.0000
vn 0.9502 0.3116 -0.0000
vn -0.0003 1.0000 -0.0000
vn -0.5324 0.8465 -0.0000
vn 0.5842 -0.8116 -0.0000
vn -0.8799 -0.4752 -0.0000
vn -0.0000 -1.0000 0.0095
vn 0.5421 -0.8401 0.0194
vn -0.0000 0.9968 0.0800
vn 0.9539 -0.3000 -0.0000
vn 0.4271 0.9042 -0.0000
vn 0.0100 0.9997 0.0231
vn 0.0373 -0.9989 0.0284
vn 0.0243 -0.9994 -0.0230
vn 0.9502 -0.3116 -0.0000
vn -0.8551 0.4937 0.1584
vn 0.0159 0.9995 -0.0285
vn -0.5438 -0.8392 -0.0000
vn -0.9498 0.3127 0.0052
vn -0.4682 0.8766 0.1112
vn -0.0000 0.7342 0.6789
vn -0.9923 0.1229 0.0168
vn -0.0000 0.9586 0.2848
vn -0.6623 0.7492 0.0112
vn -0.6489 0.7340 0.2003
vn -0.6748 0.5509 0.4910
vn -0.9921 0.1229 0.0244
vn 0.0430 -0.9987 0.0284
vn -0.0031 0.9997 0.0231
vn 0.5320 -0.8459 0.0371
vn -0.8885 -0.4590 -0.0000
vn -0.6438 -0.7651 -0.0076
vn 0.5786 0.8154 0.0188
vn -0.9531 0.3023 -0.0165
vn -0.6816 0.7312 -0.0285
vn -0.9531 -0.3023 -0.0165
vn 0.6620 -0.7495 -0.0000
vn 0.9924 -0.1229 -0.0000
vn 0.5842 0.8116 -0.0000
vn 0.8248 -0.5505 0.1287
vn 0.8589 0.4959 0.1279
vn -0.0525 0.9900 0.1306
vn -0.9970 -0.0000 -0.0775
vn 0.0011 -1.0000 -0.0000
vn 0.8845 -0.4481 0.1295
vn 0.9531 -0.3023 0.0164
vn 0.6816 0.7312 0.0285
vn 0.8799 0.4752 -0.0000
vn 0.9531 0.3023 0.0164
vn 0.0039 -1.0000 0.0059
vn -0.4271 -0.9042 -0.0000
vn 0.9510 -0.3090 -0.0082
vn -0.5786 0.8154 -0.0188
vn 0.6436 -0.7648 0.0296
vn -0.9539 0.3000 -0.0000
vn -0.5909 0.8067 0.0064
vn -0.0039 1.0000 0.0059
vn -0.9522 0.3053 0.0067
vn 0.5846 0.8113 0.0055
vn 0.5909 -0.8067 0.0055
vn -0.5846 -0.8113 0.0064
vn -0.9498 -0.3127 0.0067
vn 0.8799 -0.4752 -0.0000
vn -0.5323 -0.8464 -0.0195
vn 0.9510 -0.3090 -0.0135
vn 0.6179 0.7857 -0.0304
vn 0.8885 0.4590 -0.0000
vn 0.9516 0.3070 -0.0164
vn -0.5435 0.8386 0.0376
vn 0.5876 -0.8088 0.0253
vn 1.0000 -0.0000 -0.0000
vn -0.9502 0.3116 -0.0000
vn 0.0003 1.0000 -0.0000
vn 0.5324 0.8465 -0.0000
vn -0.5842 -0.8116 -0.0000
vn 0.8883 -0.4589 0.0158
vn -0.5288 -0.8487 0.0089
vn -0.9539 -0.3000 -0.0000
vn -0.4271 0.9042 -0.0000
vn -0.0100 0.9997 0.0231
vn -0.0000 0.0001 -1.0000
vn -0.0243 -0.9994 0.0231
vn -0.0243 -0.9994 -0.0230
vn -0.9502 -0.3116 -0.0000
vn 0.9881 -0.0000 0.1537
vn 0.0031 0.9997 -0.0231
vn 0.5438 -0.8392 -0.0000
vn 0.9510 0.3090 -0.0082
vn 0.9923 0.1229 0.0168
vn 0.6623 0.7492 0.0112
vn 0.6649 0.7182 0.2051
vn 0.6748 0.5509 0.4910
vn 0.9962 0.0765 0.0423
vn -0.0373 -0.9990 0.0231
vn 0.0031 0.9997 0.0231
vn -0.5320 -0.8459 0.0371
vn 0.8919 -0.4519 0.0156
vn 0.6438 -0.7651 -0.0076
vn -0.5535 0.8320 0.0381
vn 0.9531 0.3023 -0.0165
vn 0.6816 0.7312 -0.0285
vn 0.9516 -0.3071 -0.0134
vn -0.6620 -0.7495 -0.0000
vn -0.9924 -0.1229 -0.0000
vn -0.5842 0.8116 -0.0000
vn -0.8589 -0.4959 0.1279
vn -0.8589 0.4959 0.1279
vn -0.0565 0.9888 0.1380
vn -0.9531 -0.3023 0.0164
vn -0.5876 0.8088 -0.0253
vn -0.8919 0.4519 -0.0156
vn -0.9510 0.3090 0.0135
vn -0.0039 -1.0000 0.0059
vn -0.9522 -0.3053 0.0052
vn 0.5786 0.8154 -0.0188
vn -0.6436 -0.7648 0.0296
vn 0.5909 0.8067 0.0064
vn 0.0039 1.0000 0.0059
vn 0.9522 0.3053 0.0067
vn -0.5846 0.8113 0.0055
vn -0.5909 -0.8067 0.0055
vn 0.5846 -0.8113 0.0064
vn 0.9498 -0.3127 0.0067
vn 0.5323 -0.8464 -0.0195
vn -0.9510 -0.3090 -0.0135
vn -0.5876 0.8088 0.0253
vn -0.8919 0.4519 0.0156
vn -0.9510 0.3090 -0.0135
vn 0.5435 0.8386 0.0376
vn -0.5876 -0.8088 0.0253
vn -0.8883 -0.4589 0.0158
vn 0.5288 -0.8487 0.0089
vn 0.0159 0.9995 0.0285
vn 0.0243 -0.9994 0.0231
vn 0.0430 -0.9987 -0.0284
vn -0.9881 -0.0000 0.1537
vn -0.0031 0.9997 -0.0231
vn -0.9510 0.3090 -0.0082
vn -0.6620 0.7494 0.0113
vn -0.6649 0.7182 0.2051
vn -0.6627 0.5498 0.5084
vn -0.9962 0.0765 0.0423
vn 0.0373 -0.9990 0.0231
vn 0.0100 0.9995 0.0285
vn -0.8919 -0.4519 0.0156
vn 0.5535 0.8320 0.0381
vn -0.9516 0.3071 -0.0134
vn -0.8883 0.4589 0.0158
vn -0.6179 0.7858 0.0260
vn -0.9516 -0.3071 -0.0134
vn 0.8589 -0.4959 0.1279
vn 0.8845 0.4481 0.1295
vn 0.0565 0.9888 0.1380
vn 0.9510 -0.3090 0.0135
vn 0.5876 0.8088 -0.0253
vn 0.8919 0.4519 -0.0156
vn 0.9510 0.3090 0.0135
vn 0.9522 -0.3053 0.0052
vn -0.5435 0.8386 -0.0376
vn 0.5878 -0.8090 -0.0038
vn -0.5878 0.8090 -0.0070
vn -0.9510 0.3090 -0.0067
vn 0.5878 0.8090 -0.0079
vn 0.5878 -0.8090 -0.0079
vn -0.5878 -0.8090 -0.0070
vn -0.9510 -0.3090 -0.0067
vn 0.8919 -0.4519 -0.0156
vn -0.5288 -0.8486 -0.0176
vn 0.9516 -0.3070 -0.0164
vn 0.5876 0.8088 0.0253
vn 0.8919 0.4519 0.0156
vn 0.9510 0.3090 -0.0135
vn -0.5538 0.8324 0.0192
vn 0.6179 -0.7857 -0.0304
vn -0.5421 -0.8401 0.0194
vn -0.0159 0.9995 0.0285
vn -0.0373 -0.9989 0.0284
vn -0.0430 -0.9987 -0.0284
vn 0.8551 0.4937 0.1584
vn -0.0159 0.9995 -0.0285
vn 0.9498 0.3127 0.0052
vn 0.4682 0.8766 0.1112
vn 0.6620 0.7494 0.0113
vn 0.6489 0.7340 0.2003
vn 0.6627 0.5498 0.5084
vn 0.9921 0.1229 0.0244
vn -0.0430 -0.9987 0.0284
vn -0.0100 0.9995 0.0285
vn 0.8885 -0.4590 -0.0000
vn -0.5786 0.8154 0.0188
vn 0.9516 0.3071 -0.0134
vn 0.8883 0.4589 0.0158
vn 0.6179 0.7858 0.0260
vn 0.9531 -0.3023 -0.0165
vt 0.448439 0.349295
vt 0.468687 0.000088
vt 0.483647 0.349414
vt 0.720889 0.393893
vt 0.745183 0.397245
vt 0.720889 0.746630
vt 0.370358 0.127173
vt 0.359297 0.477197
vt 0.331070 0.127127
vt 0.851447 0.732405
vt 0.847518 0.734671
vt 0.843589 0.718810
vt 0.533163 0.969109
vt 0.541021 0.960046
vt 0.541021 0.969109
vt 0.112675 0.130383
vt 0.082544 0.477523
vt 0.079772 0.474521
vt 0.073704 0.477523
vt 0.073728 0.474521
vt 0.815817 0.343030
vt 0.814544 0.000098
vt 0.815817 0.000000
vt 0.859305 0.727874
vt 0.851447 0.718810
vt 0.859305 0.718810
vt 0.835731 0.732405
vt 0.835731 0.718810
vt 0.315292 0.976173
vt 0.313841 0.969976
vt 0.315292 0.969976
vt 0.191818 0.709185
vt 0.192708 0.365047
vt 0.224721 0.365047
vt 0.101906 0.918083
vt 0.109063 0.943284
vt 0.101805 0.943280
vt 0.509394 0.349013
vt 0.674113 0.586376
vt 0.656223 0.522081
vt 0.676242 0.522828
vt 0.601461 0.585841
vt 0.627511 0.521889
vt 0.629506 0.585516
vt 0.483647 0.412991
vt 0.448439 0.476489
vt 0.448439 0.412872
vt 0.331070 0.000000
vt 0.368857 0.063593
vt 0.331070 0.063583
vt 0.940762 0.302555
vt 0.947878 0.320195
vt 0.940627 0.320215
vt 0.655694 0.585698
vt 0.286422 0.160225
vt 0.254991 0.178352
vt 0.254991 0.160225
vt 0.950541 0.411477
vt 0.943323 0.393901
vt 0.950581 0.393893
vt 0.160695 0.196478
vt 0.201557 0.198291
vt 0.195762 0.214224
vt 0.998219 0.620473
vt 0.990856 0.644564
vt 0.990962 0.620330
vt 0.789830 0.909550
vt 0.797250 0.927308
vt 0.789992 0.927318
vt 0.495613 0.521204
vt 0.526081 0.585052
vt 0.492362 0.584701
vt 0.939171 0.108968
vt 0.931920 0.126300
vt 0.931925 0.109177
vt 0.466416 0.521679
vt 0.160695 0.160225
vt 0.192127 0.178352
vt 0.029057 0.758620
vt 0.056661 0.822108
vt 0.029553 0.822231
vt 0.286422 0.196478
vt 0.245561 0.198291
vt 0.789979 0.949938
vt 0.797089 0.965973
vt 0.789830 0.965984
vt 0.912615 0.956741
vt 0.919522 0.933918
vt 0.919866 0.956922
vt 0.912266 0.981102
vt 0.919513 0.981258
vt 0.940492 0.236336
vt 0.947905 0.219160
vt 0.947749 0.236389
vt 0.998110 0.553172
vt 0.991127 0.575584
vt 0.990856 0.552984
vt 0.998114 0.644734
vt 0.990960 0.667735
vt 0.940647 0.194442
vt 0.947751 0.172060
vt 0.947906 0.194588
vt 0.940647 0.219035
vt 0.223559 0.205202
vt 0.251355 0.214224
vt 0.483647 0.476608
vt 0.509138 0.412614
vt 0.509394 0.476207
vt 0.001201 0.822108
vt 0.887273 0.127199
vt 0.861757 0.063744
vt 0.887259 0.063593
vt 0.675582 0.630246
vt 0.656223 0.649208
vt 0.656059 0.629520
vt 0.627511 0.649016
vt 0.601193 0.629734
vt 0.628129 0.629332
vt 0.483647 0.369122
vt 0.448439 0.369003
vt 0.369893 0.107464
vt 0.331070 0.107429
vt 0.524704 0.628885
vt 0.495613 0.648281
vt 0.494605 0.628572
vt 0.466416 0.648756
vt 0.466519 0.629046
vt 0.030182 0.714750
vt 0.056780 0.694914
vt 0.056897 0.714613
vt 0.097791 0.123367
vt 0.080688 0.127070
vt 0.080649 0.123367
vt 0.269963 0.365091
vt 0.277104 0.373550
vt 0.269850 0.373594
vt 0.109063 0.873472
vt 0.101968 0.855556
vt 0.109226 0.855543
vt 0.269456 0.403341
vt 0.276622 0.409917
vt 0.269368 0.409961
vt 0.981878 0.834329
vt 0.974987 0.809002
vt 0.982238 0.809029
vt 0.521211 0.799580
vt 0.514377 0.781215
vt 0.522002 0.781215
vt 0.277217 0.433135
vt 0.269963 0.433179
vt 0.109226 0.829887
vt 0.101805 0.806490
vt 0.109063 0.806476
vt 0.276920 0.387473
vt 0.269666 0.387517
vt 0.000210 0.714621
vt 0.000000 0.758495
vt 0.886925 0.019720
vt 0.860865 0.019869
vt 0.398565 0.844536
vt 0.400017 0.877357
vt 0.398565 0.877357
vt 0.080662 0.130383
vt 0.199642 0.305698
vt 0.178583 0.287811
vt 0.185018 0.285428
vt 0.247220 0.305884
vt 0.223559 0.320451
vt 0.223401 0.313512
vt 0.262002 0.285727
vt 0.251355 0.311429
vt 0.195762 0.311429
vt 0.262099 0.260742
vt 0.268534 0.287811
vt 0.178583 0.258617
vt 0.185116 0.260443
vt 0.223809 0.232588
vt 0.268534 0.258617
vt 0.247476 0.240472
vt 0.252147 0.232588
vt 0.946209 0.706795
vt 0.909313 0.693788
vt 0.946209 0.681813
vt 0.907723 0.653883
vt 0.931509 0.661603
vt 0.486925 0.844176
vt 0.488516 0.884082
vt 0.463139 0.851896
vt 0.448439 0.872107
vt 0.448439 0.897089
vt 0.931509 0.727006
vt 0.907723 0.734726
vt 0.463139 0.917299
vt 0.486925 0.925019
vt 0.898594 0.456997
vt 0.882879 0.438870
vt 0.898594 0.438870
vt 0.889165 0.476936
vt 0.867163 0.438870
vt 0.851447 0.438870
vt 0.835731 0.456996
vt 0.835731 0.438870
vt 0.845160 0.476936
vt 0.797238 0.949927
vt 0.940492 0.281005
vt 0.948013 0.302535
vt 0.448624 0.628868
vt 0.738678 0.811863
vt 0.720889 0.855680
vt 0.721066 0.811794
vt 0.738788 0.919343
vt 0.738432 0.855745
vt 0.465326 0.781215
vt 0.475439 0.781215
vt 0.465618 0.799580
vt 0.101968 0.829901
vt 0.199897 0.240287
vt 0.195471 0.232588
vt 0.387816 0.126773
vt 0.377440 0.477183
vt 0.372904 0.477186
vt 0.449035 0.584986
vt 0.448439 0.521506
vt 0.109164 0.968646
vt 0.101906 0.968641
vt 0.998384 0.528610
vt 0.223717 0.232658
vt 0.111145 0.003704
vt 0.115386 0.063555
vt 0.110779 0.063555
vt 0.079363 0.000000
vt 0.114723 0.000000
vt 0.630612 0.928568
vt 0.651560 0.904199
vt 0.647747 0.928064
vt 0.895844 0.231979
vt 0.875984 0.171953
vt 0.895844 0.172068
vt 0.399574 0.970910
vt 0.398661 0.954776
vt 0.399622 0.954775
vt 0.047775 0.927039
vt 0.031647 0.867012
vt 0.048786 0.867196
vt 0.116048 0.127070
vt 0.109410 0.107637
vt 0.115843 0.107381
vt 0.651560 0.866632
vt 0.634425 0.904702
vt 0.635416 0.867106
vt 0.860465 0.172275
vt 0.875992 0.231863
vt 0.860465 0.232186
vt 0.552780 0.850075
vt 0.533163 0.882390
vt 0.538416 0.844176
vt 0.552780 0.898374
vt 0.548125 0.882248
vt 0.884586 0.263217
vt 0.738788 0.792149
vt 0.721145 0.792078
vt 0.466748 0.585173
vt 0.860465 0.000157
vt 0.887273 0.000000
vt 0.001319 0.694914
vt 0.509315 0.368729
vt 0.057158 0.758461
vt 0.163185 0.881135
vt 0.160695 0.910866
vt 0.160695 0.878321
vt 0.264628 0.891420
vt 0.237475 0.908052
vt 0.254957 0.880483
vt 0.180666 0.883297
vt 0.192828 0.893292
vt 0.190338 0.894234
vt 0.181908 0.880944
vt 0.192828 0.910866
vt 0.190338 0.910866
vt 0.984350 0.092043
vt 0.985370 0.105742
vt 0.984409 0.105743
vt 0.995229 0.393903
vt 0.996189 0.422859
vt 0.995229 0.422869
vt 0.985311 0.122131
vt 0.984350 0.122131
vt 0.468612 0.706684
vt 0.448439 0.725992
vt 0.465618 0.702374
vt 0.493414 0.698561
vt 0.521211 0.702374
vt 0.518216 0.706684
vt 0.538390 0.725992
vt 0.533431 0.727800
vt 0.493414 0.693353
vt 0.538390 0.755186
vt 0.533422 0.753772
vt 0.453398 0.727800
vt 0.448439 0.755186
vt 0.468022 0.776262
vt 0.453427 0.753766
vt 0.519263 0.776262
vt 0.511703 0.776262
vt 0.493664 0.781215
vt 0.493632 0.776262
vt 0.477732 0.776262
vt 0.194613 0.793753
vt 0.160695 0.793971
vt 0.160695 0.778088
vt 0.183216 0.753811
vt 0.160695 0.768389
vt 0.209212 0.753782
vt 0.230351 0.768979
vt 0.238484 0.793753
vt 0.183210 0.833715
vt 0.209212 0.833724
vt 0.230351 0.818527
vt 0.160695 0.812021
vt 0.160695 0.819572
vt 0.974626 0.785001
vt 0.981878 0.785028
vt 0.276710 0.403297
vt 0.673187 0.349410
vt 0.667441 0.000181
vt 0.676242 0.000000
vt 0.760827 0.000047
vt 0.769897 0.349104
vt 0.736922 0.349296
vt 0.020124 0.128687
vt 0.064864 0.477523
vt 0.058675 0.477885
vt 0.847518 0.702949
vt 0.851447 0.705215
vt 0.720889 0.963939
vt 0.728747 0.973003
vt 0.720889 0.977534
vt 0.048649 0.130383
vt 0.067683 0.474521
vt 0.791084 0.394114
vt 0.789830 0.740183
vt 0.789830 0.393893
vt 0.859305 0.709747
vt 0.835731 0.705215
vt 0.843589 0.700684
vt 0.313841 0.982369
vt 0.315292 0.982369
vt 0.179729 0.709185
vt 0.160695 0.365047
vt 0.981993 0.878932
vt 0.974626 0.904108
vt 0.974735 0.878925
vt 0.554042 0.349103
vt 0.564810 0.000000
vt 0.593338 0.349114
vt 0.046900 0.586686
vt 0.020156 0.650263
vt 0.020679 0.586634
vt 0.601717 0.694959
vt 0.626660 0.758057
vt 0.601072 0.758620
vt 0.676242 0.476568
vt 0.639512 0.413694
vt 0.674714 0.412969
vt 0.019685 0.065088
vt 0.044002 0.000000
vt 0.044665 0.063555
vt 0.940492 0.337874
vt 0.002135 0.586434
vt 0.254991 0.142099
vt 0.286422 0.123972
vt 0.943242 0.429069
vt 0.950500 0.429062
vt 0.201557 0.122159
vt 0.160695 0.123972
vt 0.195762 0.106227
vt 0.999811 0.196167
vt 0.992657 0.172088
vt 0.999916 0.171953
vt 0.943323 0.450699
vt 0.950581 0.450691
vt 0.657102 0.694959
vt 0.660377 0.758539
vt 0.999920 0.328086
vt 0.992742 0.303663
vt 1.000000 0.303515
vt 0.836875 0.592426
vt 0.863075 0.528444
vt 0.861788 0.592002
vt 0.192127 0.142099
vt 0.075992 0.586567
vt 0.048903 0.650318
vt 0.245561 0.122159
vt 0.251355 0.106227
vt 0.269368 0.629501
vt 0.276666 0.606873
vt 0.276622 0.629464
vt 0.939703 0.064214
vt 0.931924 0.041776
vt 0.939176 0.041574
vt 0.984699 0.023128
vt 0.991605 0.047341
vt 0.984350 0.047446
vt 0.931920 0.017234
vt 0.939176 0.017046
vt 0.984350 0.000083
vt 0.991950 0.023004
vt 0.992661 0.281089
vt 0.999916 0.219377
vt 0.992553 0.196322
vt 0.932444 0.000119
vt 0.939703 0.000000
vt 0.223559 0.115248
vt 0.593338 0.476312
vt 0.555550 0.412693
vt 0.593338 0.412693
vt 0.356507 0.649116
vt 0.328417 0.585413
vt 0.357473 0.585511
vt 0.385407 0.585390
vt 0.385764 0.648987
vt 0.048282 0.542824
vt 0.020156 0.523064
vt 0.048903 0.523119
vt 0.627677 0.801921
vt 0.601221 0.822035
vt 0.601175 0.802377
vt 0.638459 0.369838
vt 0.673660 0.369113
vt 0.045327 0.127070
vt 0.019988 0.108972
vt 0.045122 0.107381
vt 0.000662 0.542557
vt 0.020318 0.542770
vt 0.656605 0.822035
vt 0.657775 0.802352
vt 0.836085 0.636353
vt 0.863075 0.655570
vt 0.835731 0.656087
vt 0.075144 0.542703
vt 0.075260 0.522988
vt 0.063507 0.123367
vt 0.269510 0.509842
vt 0.276801 0.501298
vt 0.276768 0.509830
vt 0.109059 0.712725
vt 0.101806 0.738399
vt 0.101805 0.712773
vt 0.269368 0.546335
vt 0.276652 0.539680
vt 0.276626 0.546322
vt 0.841898 0.959945
vt 0.849477 0.934660
vt 0.849149 0.959964
vt 0.386612 0.693713
vt 0.387404 0.712078
vt 0.379779 0.712078
vt 0.842226 0.934641
vt 0.849149 0.909558
vt 0.981884 0.904115
vt 0.974735 0.928281
vt 0.269456 0.523814
vt 0.276714 0.523802
vt 0.593338 0.368823
vt 0.554509 0.368815
vt 0.357507 0.541637
vt 0.327535 0.541535
vt 0.398565 0.910179
vt 0.178583 0.032640
vt 0.199642 0.014752
vt 0.185018 0.035023
vt 0.223559 0.000000
vt 0.247220 0.014567
vt 0.223401 0.006939
vt 0.251355 0.009021
vt 0.262002 0.034723
vt 0.195762 0.009021
vt 0.268534 0.032640
vt 0.262099 0.059708
vt 0.178583 0.061833
vt 0.185116 0.060008
vt 0.223809 0.087862
vt 0.195471 0.087862
vt 0.247476 0.079979
vt 0.268534 0.061833
vt 0.252147 0.087862
vt 0.907723 0.581356
vt 0.907723 0.556374
vt 0.944619 0.568349
vt 0.946209 0.528444
vt 0.922423 0.536163
vt 0.315431 0.844537
vt 0.339217 0.852256
vt 0.313841 0.884442
vt 0.353917 0.872467
vt 0.353917 0.897449
vt 0.922423 0.601566
vt 0.946209 0.609286
vt 0.339217 0.917660
vt 0.315431 0.925379
vt 0.898594 0.420743
vt 0.889165 0.400804
vt 0.835731 0.420743
vt 0.845160 0.400804
vt 0.867163 0.393893
vt 0.269411 0.606910
vt 0.277169 0.590932
vt 0.269915 0.647351
vt 0.277169 0.647314
vt 0.002277 0.128673
vt 0.002174 0.108963
vt 0.223717 0.087792
vt 0.385653 0.541507
vt 0.403165 0.585443
vt 0.330728 0.712078
vt 0.331020 0.693713
vt 0.340840 0.712078
vt 0.109611 0.694914
vt 0.102357 0.694963
vt 0.199897 0.080164
vt 0.720889 0.349284
vt 0.000952 0.001604
vt 0.001945 0.065091
vt 0.269543 0.501311
vt 0.276626 0.477776
vt 0.867723 0.337971
vt 0.860466 0.320964
vt 0.867723 0.320741
vt 0.055580 0.478067
vt 0.047658 0.003704
vt 0.049271 0.063555
vt 0.079401 0.003704
vt 0.617290 0.905206
vt 0.613477 0.929071
vt 0.929677 0.785000
vt 0.912575 0.845023
vt 0.912266 0.785101
vt 0.398565 0.987045
vt 0.399526 0.987045
vt 0.015475 0.926692
vt 0.031625 0.926865
vt 0.051560 0.107637
vt 0.619272 0.867580
vt 0.000966 0.927039
vt 0.014507 0.866827
vt 0.604789 0.868510
vt 0.603582 0.900251
vt 0.601072 0.913698
vt 0.922391 0.876270
vt 0.912266 0.889175
vt 0.385764 0.521793
vt 0.403597 0.541559
vt 0.356507 0.521922
vt 0.328154 0.521827
vt 0.862676 0.635865
vt 0.163185 0.940597
vt 0.163185 0.910866
vt 0.254957 0.935621
vt 0.264628 0.924684
vt 0.192828 0.928439
vt 0.180666 0.938435
vt 0.190338 0.927498
vt 0.181908 0.940787
vt 0.398661 1.000000
vt 0.399622 1.000000
vt 0.995229 0.451835
vt 0.448439 0.983910
vt 0.449399 0.969616
vt 0.449399 0.983886
vt 0.334014 0.786608
vt 0.313841 0.767300
vt 0.318800 0.765493
vt 0.386612 0.790918
vt 0.358816 0.794732
vt 0.383618 0.786608
vt 0.403792 0.767300
vt 0.398833 0.765493
vt 0.331020 0.790918
vt 0.403792 0.738107
vt 0.398824 0.739521
vt 0.313841 0.738107
vt 0.318829 0.739527
vt 0.333424 0.717031
vt 0.384665 0.717031
vt 0.343133 0.717031
vt 0.359066 0.712078
vt 0.377105 0.717031
vt 0.359034 0.717031
vt 0.833702 0.824972
vt 0.867619 0.809307
vt 0.867619 0.825189
vt 0.845098 0.785029
vt 0.819102 0.785001
vt 0.797963 0.800198
vt 0.789830 0.824972
vt 0.845104 0.864934
vt 0.819102 0.864943
vt 0.797963 0.849745
vt 0.867619 0.843240
vt 0.867619 0.850791
vt 0.109061 0.738351
vt 0.102357 0.761880
vt 0.269394 0.539693
vt 0.459885 0.000058
vt 0.727140 0.747482
vt 0.368368 0.477190
vt 0.843589 0.736937
vt 0.533163 0.955514
vt 0.814544 0.343129
vt 0.313841 0.976173
vt 0.185773 0.709185
vt 0.109164 0.918087
vt 0.474996 0.000000
vt 0.601072 0.522326
vt 0.370358 0.000046
vt 0.943282 0.411485
vt 0.797089 0.909539
vt 0.524086 0.521501
vt 0.939171 0.126164
vt 0.192127 0.160225
vt 0.912266 0.933771
vt 0.998384 0.575733
vt 0.998219 0.667872
vt 0.940492 0.171953
vt 0.860465 0.127356
vt 0.676242 0.649955
vt 0.601072 0.649453
vt 0.524086 0.648577
vt 0.029672 0.695037
vt 0.277217 0.365047
vt 0.101805 0.873486
vt 0.974626 0.834301
vt 0.400017 0.844536
vt 0.867163 0.483847
vt 0.947743 0.280985
vt 0.448439 0.648583
vt 0.721145 0.919272
vt 0.403792 0.127081
vt 0.991133 0.528443
vt 0.398613 0.970910
vt 0.541105 0.910917
vt 0.895301 0.276145
vt 0.264628 0.908052
vt 0.237475 0.878321
vt 0.985311 0.092042
vt 0.996189 0.393893
vt 0.637985 0.350135
vt 0.769897 0.000000
vt 0.728747 0.963939
vt 0.791084 0.740404
vt 0.555740 0.000003
vt 0.628630 0.694552
vt 0.641040 0.477292
vt 0.018799 0.001617
vt 0.947743 0.337854
vt 0.000000 0.650043
vt 0.992661 0.328220
vt 0.835731 0.528960
vt 0.075260 0.650187
vt 0.932453 0.064371
vt 0.991597 0.000000
vt 0.999918 0.280985
vt 0.992659 0.219493
vt 0.554042 0.476301
vt 0.328154 0.649021
vt 0.628134 0.821628
vt 0.000000 0.522844
vt 0.841898 0.909540
vt 0.981993 0.928288
vt 0.400017 0.910179
vt 0.269915 0.590969
vt 0.403792 0.649037
vt 0.000000 0.129140
vt 0.052485 0.478248
vt 0.269368 0.477788
vt 0.860465 0.338126
vt 0.929979 0.844922
vt 0.000000 0.867175
vt 0.403792 0.521843
vt 0.160695 0.943411
vt 0.237475 0.937783
vt 0.996189 0.451825
vt 0.448439 0.969640
vt 0.358816 0.799940
vt 0.867619 0.799608
vt 0.109611 0.761831
s 0
f 14/1/1 2/2/1 1/3/1
f 99/4/2 7/5/2 3/6/2
f 13/7/3 8/8/3 109/9/3
f 12/10/4 104/11/4 17/12/4
f 21/13/4 2/14/4 15/15/4
f 4/16/5 8/17/5 5/18/5
f 5/18/6 16/19/6 18/20/6
f 5/21/7 11/22/7 4/23/7
f 8/24/4 9/25/4 16/26/4
f 17/12/4 6/27/4 21/28/4
f 18/29/8 10/30/8 5/31/8
f 10/32/9 19/33/9 11/34/9
f 57/35/10 161/36/10 60/37/10
f 2/2/11 7/38/11 1/3/11
f 42/39/12 66/40/12 65/41/12
f 46/42/13 63/43/13 43/44/13
f 48/45/14 37/46/14 53/47/14
f 106/48/15 52/49/15 105/50/15
f 32/51/16 89/52/16 39/53/16
f 43/44/17 66/40/17 44/54/17
f 37/55/8 32/56/8 39/57/8
f 40/58/14 90/59/14 34/60/14
f 106/61/8 27/62/8 71/63/8
f 26/64/18 78/65/18 79/66/18
f 34/67/19 87/68/19 27/69/19
f 70/70/20 46/71/20 51/72/20
f 28/73/21 77/74/21 75/75/21
f 51/72/22 94/76/22 70/70/22
f 38/77/8 34/78/8 106/61/8
f 45/79/23 65/80/23 67/81/23
f 29/82/8 41/83/8 32/56/8
f 72/84/24 84/85/24 41/86/24
f 25/87/25 83/88/25 82/89/25
f 35/90/26 82/89/26 81/91/26
f 23/92/27 76/93/27 83/94/27
f 22/95/28 81/96/28 73/97/28
f 36/98/29 75/99/29 78/65/29
f 31/100/30 79/101/30 80/102/30
f 24/103/31 80/102/31 76/93/31
f 71/63/8 27/62/8 72/104/8
f 69/105/8 72/104/8 41/83/8
f 29/106/32 50/107/32 69/108/32
f 68/109/33 45/79/33 67/81/33
f 68/110/34 95/111/34 49/112/34
f 120/113/35 148/114/35 122/115/35
f 145/116/36 123/117/36 121/118/36
f 14/1/14 133/119/14 132/120/14
f 127/121/37 109/9/37 128/122/37
f 148/114/38 121/118/38 122/115/38
f 123/123/39 151/124/39 126/125/39
f 126/125/40 152/126/40 130/127/40
f 125/128/41 147/129/41 120/130/41
f 113/131/16 61/132/16 108/133/16
f 103/134/42 167/135/42 96/136/42
f 54/137/43 160/138/43 55/139/43
f 156/140/42 169/141/42 97/142/42
f 59/143/44 165/144/44 56/145/44
f 7/146/4 98/147/4 153/148/4
f 97/142/45 164/149/45 59/150/45
f 58/151/46 162/152/46 57/153/46
f 96/136/42 159/154/42 155/155/42
f 133/119/47 50/107/47 48/45/47
f 124/156/48 45/79/48 49/157/48
f 124/158/49 95/111/49 131/159/49
f 4/160/4 19/161/4 62/162/4
f 61/132/50 4/16/50 62/163/50
f 31/164/8 64/165/8 26/166/8
f 23/167/8 66/168/8 24/169/8
f 25/170/8 65/171/8 23/167/8
f 24/169/8 63/172/8 31/164/8
f 35/173/8 67/174/8 25/170/8
f 26/166/8 70/175/8 36/176/8
f 101/177/8 71/63/8 72/104/8
f 68/178/8 22/179/8 102/180/8
f 73/181/8 74/182/8 77/183/8
f 78/184/8 75/185/8 74/182/8
f 78/186/8 74/187/8 79/188/8
f 79/188/8 74/187/8 80/189/8
f 80/189/8 74/187/8 76/190/8
f 73/181/8 81/191/8 74/182/8
f 81/191/8 82/192/8 74/182/8
f 83/193/8 74/187/8 82/194/8
f 76/190/8 74/187/8 83/193/8
f 86/195/8 85/196/8 89/197/8
f 84/198/8 93/199/8 85/196/8
f 88/200/8 90/201/8 92/202/8
f 93/199/8 87/203/8 88/200/8
f 27/69/51 91/204/51 72/84/51
f 41/205/52 86/206/52 32/51/52
f 152/126/53 127/207/53 130/127/53
f 22/179/8 101/177/8 102/180/8
f 131/208/54 50/209/54 129/210/54
f 102/211/55 50/209/55 95/212/55
f 152/213/4 154/214/4 13/215/4
f 55/139/56 163/216/56 58/151/56
f 101/177/8 69/105/8 102/180/8
f 28/217/8 70/175/8 94/218/8
f 154/219/57 3/220/57 104/221/57
f 94/76/58 52/222/58 71/223/58
f 60/37/59 168/224/59 103/225/59
f 73/97/60 33/226/60 22/95/60
f 33/227/8 94/218/8 101/177/8
f 104/221/61 13/7/61 154/219/61
f 135/228/16 105/229/16 47/230/16
f 135/228/16 38/231/16 106/232/16
f 108/233/62 119/234/62 113/235/62
f 47/236/63 139/237/63 135/238/63
f 138/239/14 143/240/14 117/241/14
f 134/242/16 111/243/16 136/244/16
f 109/245/16 114/246/16 128/247/16
f 134/248/64 112/249/64 110/250/64
f 113/131/16 114/246/16 109/245/16
f 136/251/65 115/252/65 134/253/65
f 115/254/66 119/255/66 134/256/66
f 114/257/67 119/255/67 118/258/67
f 47/236/68 118/259/68 115/252/68
f 153/260/69 129/210/69 7/261/69
f 130/127/70 52/222/70 100/262/70
f 124/158/71 153/263/71 150/264/71
f 150/265/48 125/128/48 124/156/48
f 1/3/72 129/266/72 133/119/72
f 125/128/73 42/267/73 45/79/73
f 51/72/74 130/127/74 100/262/74
f 46/71/39 126/125/39 51/72/39
f 122/115/75 43/44/75 44/54/75
f 52/49/15 128/122/15 105/50/15
f 132/120/14 48/45/14 53/47/14
f 121/118/76 46/42/76 43/44/76
f 42/39/77 122/115/77 44/54/77
f 128/247/16 47/230/16 105/229/16
f 30/268/8 107/269/8 135/270/8
f 143/271/8 141/272/8 144/273/8
f 116/274/8 136/275/8 117/276/8
f 30/268/8 139/277/8 116/274/8
f 117/276/8 111/278/8 138/279/8
f 117/280/78 144/281/78 116/282/78
f 30/283/16 141/284/16 137/285/16
f 116/282/79 142/286/79 30/287/79
f 77/183/8 74/182/8 75/185/8
f 58/288/4 146/289/4 145/290/4
f 55/291/4 147/292/4 54/293/4
f 54/293/4 149/294/4 56/295/4
f 55/291/4 145/290/4 148/296/4
f 56/295/4 150/297/4 59/298/4
f 57/299/4 151/300/4 146/289/4
f 103/301/4 151/300/4 60/302/4
f 97/303/4 150/297/4 153/148/4
f 103/301/4 154/214/4 152/213/4
f 156/304/4 99/305/4 155/306/4
f 96/307/4 99/305/4 154/214/4
f 97/303/4 98/147/4 156/304/4
f 158/308/4 159/309/4 167/310/4
f 161/311/4 167/310/4 168/312/4
f 161/311/4 162/313/4 158/308/4
f 162/313/4 163/314/4 158/308/4
f 163/314/4 160/315/4 158/308/4
f 164/316/4 158/308/4 165/317/4
f 166/318/4 165/317/4 158/308/4
f 160/315/4 166/318/4 158/308/4
f 157/319/4 159/309/4 158/308/4
f 157/319/4 164/316/4 169/320/4
f 56/145/80 166/321/80 54/322/80
f 155/155/42 157/323/42 156/140/42
f 14/324/1 171/325/1 15/326/1
f 172/327/81 176/328/81 247/329/81
f 181/330/82 177/331/82 180/332/82
f 17/12/4 252/333/4 180/334/4
f 21/335/4 171/336/4 175/337/4
f 177/331/83 173/338/83 174/339/83
f 16/19/6 174/339/6 18/20/6
f 179/340/84 174/341/84 173/342/84
f 9/25/4 177/343/4 16/26/4
f 17/12/4 175/344/4 172/345/4
f 178/346/8 18/29/8 174/347/8
f 19/33/9 178/348/9 179/349/9
f 299/350/85 212/351/85 215/352/85
f 176/353/86 171/354/86 170/355/86
f 198/356/87 219/357/87 200/358/87
f 216/359/88 202/360/88 199/361/88
f 37/362/14 204/363/14 53/364/14
f 208/365/89 254/366/89 253/367/89
f 89/52/16 192/368/16 39/53/16
f 219/357/90 199/369/90 200/358/90
f 37/55/8 192/370/8 189/371/8
f 240/372/14 40/58/14 194/373/14
f 187/374/8 254/375/8 224/376/8
f 186/377/91 231/378/91 196/379/91
f 239/380/92 194/373/92 187/381/92
f 202/360/20 223/382/20 207/383/20
f 230/384/93 188/385/93 228/386/93
f 207/387/94 242/388/94 248/389/94
f 194/390/8 38/77/8 254/375/8
f 201/391/95 218/392/95 198/356/95
f 189/371/8 197/393/8 222/394/8
f 237/395/96 225/396/96 197/397/96
f 185/398/97 236/399/97 183/400/97
f 195/401/98 235/402/98 185/403/98
f 183/400/99 229/404/99 184/405/99
f 182/406/100 234/407/100 195/401/100
f 196/408/101 228/386/101 188/385/101
f 191/409/102 232/410/102 186/377/102
f 184/405/103 233/411/103 191/412/103
f 224/376/8 225/413/8 187/374/8
f 222/394/8 197/393/8 225/413/8
f 189/414/104 206/415/104 204/416/104
f 221/417/33 201/418/33 205/419/33
f 221/417/105 243/420/105 250/421/105
f 263/422/106 286/423/106 285/424/106
f 266/425/107 283/426/107 264/427/107
f 275/428/14 14/324/14 132/429/14
f 255/430/108 270/431/108 271/432/108
f 264/433/109 286/423/109 265/434/109
f 289/435/39 266/425/39 269/436/39
f 269/437/110 290/438/110 289/439/110
f 268/440/111 285/424/111 287/441/111
f 61/132/16 256/442/16 108/133/16
f 305/443/112 251/444/112 244/445/112
f 298/446/113 209/447/113 210/448/113
f 307/449/112 294/450/112 245/451/112
f 303/452/114 214/453/114 211/454/114
f 176/455/4 291/456/4 246/457/4
f 302/458/115 245/459/115 214/453/115
f 300/460/116 213/461/116 212/351/116
f 297/462/112 244/445/112 293/463/112
f 275/464/117 206/415/117 272/465/117
f 267/466/48 201/418/48 268/467/48
f 267/466/118 243/420/118 205/419/118
f 19/161/4 173/468/4 62/162/4
f 61/132/50 173/338/50 255/430/50
f 217/469/8 191/470/8 186/471/8
f 219/472/8 183/473/8 184/474/8
f 218/475/8 185/476/8 183/473/8
f 216/477/8 184/474/8 191/470/8
f 220/478/8 195/479/8 185/476/8
f 223/480/8 186/471/8 196/481/8
f 249/482/8 224/376/8 242/483/8
f 182/484/8 221/485/8 250/486/8
f 226/487/8 230/488/8 227/489/8
f 231/490/8 227/489/8 228/491/8
f 231/492/8 232/493/8 227/494/8
f 232/493/8 233/495/8 227/494/8
f 233/495/8 229/496/8 227/494/8
f 226/487/8 227/489/8 234/497/8
f 234/497/8 227/489/8 235/498/8
f 236/499/8 235/500/8 227/494/8
f 229/496/8 236/499/8 227/494/8
f 85/196/8 238/501/8 89/197/8
f 93/199/8 237/502/8 85/196/8
f 88/200/8 240/503/8 239/504/8
f 93/199/8 239/504/8 241/505/8
f 241/506/119 187/507/119 225/396/119
f 238/508/120 197/397/120 192/509/120
f 270/431/121 290/510/121 273/511/121
f 182/484/122 249/482/122 193/512/122
f 274/513/123 206/514/123 243/420/123
f 206/514/124 250/421/124 243/420/124
f 290/515/4 181/516/4 292/517/4
f 301/518/125 210/448/125 213/519/125
f 222/394/8 249/482/8 250/486/8
f 223/480/8 188/520/8 242/483/8
f 292/521/126 172/327/126 247/329/126
f 242/522/127 208/365/127 248/523/127
f 306/524/128 215/525/128 251/444/128
f 226/526/129 193/527/129 230/528/129
f 193/512/8 242/483/8 188/520/8
f 252/529/82 181/330/82 180/332/82
f 253/367/16 277/530/16 203/531/16
f 277/530/16 38/231/16 107/532/16
f 262/533/62 108/233/62 256/534/62
f 279/535/130 203/536/130 277/537/130
f 281/538/14 138/239/14 260/539/14
f 276/540/16 111/243/16 110/541/16
f 255/430/16 271/432/16 257/542/16
f 276/543/64 112/249/64 262/533/64
f 256/442/16 255/430/16 257/542/16
f 258/544/131 278/545/131 276/540/131
f 258/546/132 262/533/132 261/547/132
f 262/533/133 257/548/133 261/547/133
f 203/536/134 261/549/134 257/550/134
f 291/551/135 272/552/135 274/513/135
f 208/365/136 273/511/136 248/523/136
f 291/551/137 267/466/137 288/553/137
f 288/553/48 268/467/48 287/554/48
f 170/355/138 272/465/138 176/353/138
f 198/356/139 268/440/139 201/391/139
f 207/387/140 273/555/140 269/437/140
f 269/436/39 202/360/39 207/383/39
f 199/369/141 265/434/141 200/358/141
f 271/432/89 208/365/89 253/367/89
f 204/363/14 132/429/14 53/364/14
f 202/360/142 264/427/142 199/361/142
f 198/356/143 265/434/143 263/422/143
f 271/432/16 203/531/16 257/542/16
f 190/556/8 107/269/8 137/557/8
f 282/558/8 141/272/8 281/559/8
f 278/560/8 259/561/8 260/562/8
f 279/563/8 190/556/8 259/561/8
f 111/278/8 260/562/8 138/279/8
f 282/564/144 260/539/144 259/565/144
f 141/284/16 190/566/16 137/285/16
f 280/567/145 259/568/145 190/569/145
f 230/488/8 228/491/8 227/489/8
f 213/570/4 284/571/4 212/572/4
f 285/573/4 210/574/4 209/575/4
f 287/576/4 209/575/4 211/577/4
f 210/574/4 283/578/4 213/570/4
f 288/579/4 211/577/4 214/580/4
f 212/572/4 289/581/4 215/582/4
f 289/581/4 251/583/4 215/582/4
f 245/584/4 288/579/4 214/580/4
f 251/583/4 292/517/4 244/585/4
f 247/586/4 294/587/4 293/588/4
f 244/585/4 247/586/4 293/588/4
f 246/457/4 245/584/4 294/587/4
f 296/589/4 305/590/4 297/591/4
f 299/592/4 305/590/4 296/589/4
f 299/592/4 296/589/4 300/593/4
f 300/593/4 296/589/4 301/594/4
f 301/594/4 296/589/4 298/595/4
f 302/596/4 303/597/4 296/589/4
f 304/598/4 296/589/4 303/597/4
f 298/595/4 296/589/4 304/598/4
f 295/599/4 296/589/4 297/591/4
f 302/596/4 295/599/4 307/600/4
f 304/601/146 211/602/146 209/447/146
f 295/603/112 293/463/112 294/450/112
f 14/1/1 15/604/1 2/2/1
f 98/147/4 7/146/4 99/305/4
f 7/5/147 6/605/147 3/6/147
f 13/7/148 12/606/148 8/8/148
f 17/12/4 9/25/4 12/10/4
f 104/11/4 3/607/4 17/12/4
f 21/13/4 6/608/4 2/14/4
f 4/16/149 109/245/149 8/17/149
f 5/18/6 8/17/6 16/19/6
f 5/21/7 10/609/7 11/22/7
f 8/24/4 12/10/4 9/25/4
f 17/12/4 3/607/4 6/27/4
f 18/29/8 20/610/8 10/30/8
f 10/32/9 20/611/9 19/33/9
f 57/35/10 162/612/10 161/36/10
f 2/2/147 6/613/147 7/38/147
f 42/39/150 44/54/150 66/40/150
f 46/42/151 64/614/151 63/43/151
f 48/45/14 29/106/14 37/46/14
f 106/48/152 71/615/152 52/49/152
f 32/51/16 86/206/16 89/52/16
f 43/44/153 63/43/153 66/40/153
f 37/55/8 29/82/8 32/56/8
f 40/58/14 92/616/14 90/59/14
f 106/61/8 34/78/8 27/62/8
f 26/64/154 36/98/154 78/65/154
f 34/67/19 90/617/19 87/68/19
f 70/70/20 64/618/20 46/71/20
f 28/73/155 33/619/155 77/74/155
f 51/72/156 100/262/156 94/76/156
f 38/77/8 40/620/8 34/78/8
f 45/79/157 42/267/157 65/80/157
f 29/82/8 69/105/8 41/83/8
f 72/84/24 91/204/24 84/85/24
f 25/87/158 23/621/158 83/88/158
f 35/90/159 25/87/159 82/89/159
f 23/92/160 24/103/160 76/93/160
f 22/95/161 35/622/161 81/96/161
f 36/98/162 28/623/162 75/99/162
f 31/100/163 26/624/163 79/101/163
f 24/103/164 31/100/164 80/102/164
f 29/106/47 48/45/47 50/107/47
f 68/109/33 49/157/33 45/79/33
f 68/110/165 102/625/165 95/111/165
f 120/113/166 147/626/166 148/114/166
f 145/116/167 146/627/167 123/117/167
f 14/1/14 1/3/14 133/119/14
f 127/121/168 13/7/168 109/9/168
f 148/114/169 145/116/169 121/118/169
f 123/123/39 146/628/39 151/124/39
f 126/125/170 151/124/170 152/126/170
f 125/128/171 149/629/171 147/129/171
f 113/131/16 109/245/16 61/132/16
f 103/134/42 168/630/42 167/135/42
f 54/137/43 166/631/43 160/138/43
f 156/140/42 157/323/42 169/141/42
f 59/143/44 164/632/44 165/144/44
f 97/142/45 169/141/45 164/149/45
f 58/151/46 163/216/46 162/152/46
f 96/136/42 167/135/42 159/154/42
f 133/119/172 129/266/172 50/107/172
f 124/156/48 125/128/48 45/79/48
f 124/158/173 49/112/173 95/111/173
f 4/160/4 11/633/4 19/161/4
f 61/132/50 109/245/50 4/16/50
f 31/164/8 63/172/8 64/165/8
f 23/167/8 65/171/8 66/168/8
f 25/170/8 67/174/8 65/171/8
f 24/169/8 66/168/8 63/172/8
f 35/173/8 68/178/8 67/174/8
f 26/166/8 64/165/8 70/175/8
f 101/177/8 94/218/8 71/63/8
f 68/178/8 35/173/8 22/179/8
f 86/195/8 84/198/8 85/196/8
f 84/198/8 91/634/8 93/199/8
f 88/200/8 87/203/8 90/201/8
f 93/199/8 91/634/8 87/203/8
f 27/69/51 87/68/51 91/204/51
f 41/205/52 84/635/52 86/206/52
f 152/126/174 13/636/174 127/207/174
f 22/179/122 33/227/122 101/177/122
f 131/208/175 95/212/175 50/209/175
f 102/211/176 69/637/176 50/209/176
f 55/139/56 160/138/56 163/216/56
f 101/177/8 72/104/8 69/105/8
f 28/217/8 36/176/8 70/175/8
f 154/219/177 99/638/177 3/220/177
f 94/76/178 100/262/178 52/222/178
f 60/37/59 161/36/59 168/224/59
f 73/97/179 77/639/179 33/226/179
f 33/227/8 28/217/8 94/218/8
f 104/221/148 12/606/148 13/7/148
f 135/228/16 106/232/16 105/229/16
f 135/228/16 107/532/16 38/231/16
f 108/233/62 112/249/62 119/234/62
f 47/236/63 115/252/63 139/237/63
f 138/239/14 140/640/14 143/240/14
f 134/242/16 110/541/16 111/243/16
f 134/248/64 119/234/64 112/249/64
f 136/251/180 139/237/180 115/252/180
f 115/254/181 118/258/181 119/255/181
f 114/257/182 113/641/182 119/255/182
f 47/236/183 114/642/183 118/259/183
f 153/260/184 131/208/184 129/210/184
f 130/127/185 127/207/185 52/222/185
f 124/158/49 131/159/49 153/263/49
f 150/265/48 149/629/48 125/128/48
f 1/3/186 7/38/186 129/266/186
f 125/128/41 120/130/41 42/267/41
f 51/72/187 126/125/187 130/127/187
f 46/71/39 123/123/39 126/125/39
f 122/115/188 121/118/188 43/44/188
f 52/49/189 127/121/189 128/122/189
f 132/120/14 133/119/14 48/45/14
f 121/118/190 123/117/190 46/42/190
f 42/39/191 120/113/191 122/115/191
f 128/247/16 114/246/16 47/230/16
f 30/268/8 137/557/8 107/269/8
f 140/643/8 141/272/8 143/271/8
f 141/272/8 142/644/8 144/273/8
f 116/274/8 139/277/8 136/275/8
f 30/268/8 135/270/8 139/277/8
f 117/276/8 136/275/8 111/278/8
f 117/280/78 143/645/78 144/281/78
f 30/283/16 142/646/16 141/284/16
f 116/282/79 144/281/79 142/286/79
f 58/288/4 57/299/4 146/289/4
f 55/291/4 148/296/4 147/292/4
f 54/293/4 147/292/4 149/294/4
f 55/291/4 58/288/4 145/290/4
f 56/295/4 149/294/4 150/297/4
f 57/299/4 60/302/4 151/300/4
f 103/301/4 152/213/4 151/300/4
f 97/303/4 59/298/4 150/297/4
f 103/301/4 96/307/4 154/214/4
f 156/304/4 98/147/4 99/305/4
f 96/307/4 155/306/4 99/305/4
f 97/303/4 153/148/4 98/147/4
f 161/311/4 158/308/4 167/310/4
f 157/319/4 158/308/4 164/316/4
f 56/145/80 165/144/80 166/321/80
f 155/155/42 159/154/42 157/323/42
f 14/324/1 170/647/1 171/325/1
f 175/648/192 176/328/192 172/327/192
f 176/455/4 246/457/4 247/586/4
f 181/330/193 255/430/193 177/331/193
f 180/334/4 9/25/4 17/12/4
f 17/12/4 172/345/4 252/333/4
f 21/335/4 15/649/4 171/336/4
f 177/331/194 255/430/194 173/338/194
f 16/19/6 177/331/6 174/339/6
f 179/340/84 178/650/84 174/341/84
f 9/25/4 180/334/4 177/343/4
f 17/12/4 21/28/4 175/344/4
f 178/346/8 20/610/8 18/29/8
f 19/33/9 20/611/9 178/348/9
f 299/350/85 300/460/85 212/351/85
f 176/353/192 175/651/192 171/354/192
f 198/356/195 218/392/195 219/357/195
f 216/359/196 217/652/196 202/360/196
f 37/362/14 189/653/14 204/363/14
f 208/365/197 224/654/197 254/366/197
f 89/52/16 238/655/16 192/368/16
f 219/357/198 216/656/198 199/369/198
f 37/55/8 39/57/8 192/370/8
f 240/372/14 92/616/14 40/58/14
f 187/374/8 194/390/8 254/375/8
f 186/377/18 232/410/18 231/378/18
f 239/380/92 240/372/92 194/373/92
f 202/360/20 217/652/20 223/382/20
f 230/384/199 193/657/199 188/385/199
f 207/387/200 223/658/200 242/388/200
f 194/390/8 40/620/8 38/77/8
f 201/391/201 220/659/201 218/392/201
f 189/371/8 192/370/8 197/393/8
f 237/395/96 241/506/96 225/396/96
f 185/398/202 235/660/202 236/399/202
f 195/401/26 234/407/26 235/402/26
f 183/400/203 236/399/203 229/404/203
f 182/406/204 226/661/204 234/407/204
f 196/408/205 231/662/205 228/386/205
f 191/409/206 233/663/206 232/410/206
f 184/405/207 229/404/207 233/411/207
f 189/414/208 222/664/208 206/415/208
f 221/417/33 220/665/33 201/418/33
f 221/417/209 205/419/209 243/420/209
f 263/422/210 265/434/210 286/423/210
f 266/425/211 284/666/211 283/426/211
f 275/428/14 170/647/14 14/324/14
f 255/430/212 181/330/212 270/431/212
f 264/433/213 283/667/213 286/423/213
f 289/435/39 284/666/39 266/425/39
f 269/437/214 273/555/214 290/438/214
f 268/440/215 263/422/215 285/424/215
f 61/132/16 255/430/16 256/442/16
f 305/443/112 306/524/112 251/444/112
f 298/446/113 304/601/113 209/447/113
f 307/449/112 295/603/112 294/450/112
f 303/452/114 302/458/114 214/453/114
f 302/458/115 307/668/115 245/459/115
f 300/460/116 301/669/116 213/461/116
f 297/462/112 305/443/112 244/445/112
f 275/464/104 204/416/104 206/415/104
f 267/466/48 205/419/48 201/418/48
f 267/466/216 274/513/216 243/420/216
f 19/161/4 179/670/4 173/468/4
f 61/132/50 62/163/50 173/338/50
f 217/469/8 216/477/8 191/470/8
f 219/472/8 218/475/8 183/473/8
f 218/475/8 220/478/8 185/476/8
f 216/477/8 219/472/8 184/474/8
f 220/478/8 221/485/8 195/479/8
f 223/480/8 217/469/8 186/471/8
f 249/482/8 225/413/8 224/376/8
f 182/484/8 195/479/8 221/485/8
f 85/196/8 237/502/8 238/501/8
f 93/199/8 241/505/8 237/502/8
f 88/200/8 92/202/8 240/503/8
f 93/199/8 88/200/8 239/504/8
f 241/506/119 239/671/119 187/507/119
f 238/508/120 237/395/120 197/397/120
f 270/431/217 181/330/217 290/510/217
f 182/484/8 250/486/8 249/482/8
f 274/513/218 272/552/218 206/514/218
f 206/514/219 222/672/219 250/421/219
f 301/518/125 298/446/125 210/448/125
f 222/394/8 225/413/8 249/482/8
f 223/480/8 196/481/8 188/520/8
f 292/673/220 252/529/220 172/674/220
f 242/522/221 224/654/221 208/365/221
f 306/524/128 299/675/128 215/525/128
f 226/526/222 182/676/222 193/527/222
f 193/512/8 249/482/8 242/483/8
f 252/529/223 292/673/223 181/330/223
f 253/367/16 254/366/16 277/530/16
f 277/530/16 254/366/16 38/231/16
f 262/533/62 112/249/62 108/233/62
f 279/535/130 258/677/130 203/536/130
f 281/538/14 140/640/14 138/239/14
f 276/540/16 278/545/16 111/243/16
f 276/543/64 110/250/64 112/249/64
f 258/544/224 279/678/224 278/545/224
f 258/546/225 276/543/225 262/533/225
f 262/533/226 256/534/226 257/548/226
f 203/536/227 258/677/227 261/549/227
f 291/551/228 176/679/228 272/552/228
f 208/365/229 270/431/229 273/511/229
f 291/551/216 274/513/216 267/466/216
f 288/553/48 267/466/48 268/467/48
f 170/355/230 275/464/230 272/465/230
f 198/356/215 263/422/215 268/440/215
f 207/387/231 248/389/231 273/555/231
f 269/436/39 266/425/39 202/360/39
f 199/369/232 264/433/232 265/434/232
f 271/432/233 270/431/233 208/365/233
f 204/363/14 275/428/14 132/429/14
f 202/360/234 266/425/234 264/427/234
f 198/356/235 200/358/235 265/434/235
f 271/432/16 253/367/16 203/531/16
f 190/556/8 277/680/8 107/269/8
f 280/681/8 141/272/8 282/558/8
f 141/272/8 140/643/8 281/559/8
f 278/560/8 279/563/8 259/561/8
f 279/563/8 277/680/8 190/556/8
f 111/278/8 278/560/8 260/562/8
f 282/564/144 281/538/144 260/539/144
f 141/284/16 280/682/16 190/566/16
f 280/567/145 282/683/145 259/568/145
f 213/570/4 283/578/4 284/571/4
f 285/573/4 286/684/4 210/574/4
f 287/576/4 285/573/4 209/575/4
f 210/574/4 286/684/4 283/578/4
f 288/579/4 287/576/4 211/577/4
f 212/572/4 284/571/4 289/581/4
f 289/581/4 290/515/4 251/583/4
f 245/584/4 291/456/4 288/579/4
f 251/583/4 290/515/4 292/517/4
f 247/586/4 246/457/4 294/587/4
f 244/585/4 292/517/4 247/586/4
f 246/457/4 291/456/4 245/584/4
f 299/592/4 306/685/4 305/590/4
f 302/596/4 296/589/4 295/599/4
f 304/601/146 303/686/146 211/602/146
f 295/603/112 297/462/112 293/463/112
